<svg id="图层_1" data-name="图层 1" xmlns="http://www.w3.org/2000/svg" xmlns:xlink="http://www.w3.org/1999/xlink" viewBox="0 0 280.06 75"><defs><style>.cls-1{fill:none;}.cls-2{clip-path:url(#clip-path);}.cls-3,.cls-4{fill:#7ac28a;}.cls-3{opacity:0.5;}.cls-4{opacity:0.3;}</style><clipPath id="clip-path"><rect class="cls-1" x="0.03" width="280" height="75" transform="translate(280.06 75) rotate(-180)"/></clipPath></defs><title>bottom</title><g class="cls-2"><path class="cls-3" d="M-140.87,231.06l311-203.18C204,5.75,252.92,11.24,278.9,40.08h0c26,28.84,19.52,70.54-14.34,92.66l-311,203.18c-33.86,22.12-82.82,16.63-108.79-12.21h0C-181.19,294.88-174.73,253.18-140.87,231.06Z"/><path class="cls-4" d="M-217.07,227.64,61.62,45.55C92,25.73,135.83,30.65,159.11,56.5h0c23.28,25.84,17.5,63.21-12.85,83L-132.43,321.62c-30.34,19.83-74.22,14.9-97.5-10.94h0C-253.2,284.83-247.42,247.47-217.07,227.64Z"/></g></svg>