<svg xmlns="http://www.w3.org/2000/svg" viewBox="0 0 9.03 10.54"><defs><style>.cls-1{fill:#7ac28a;}</style></defs><title>lock</title><g id="图层_2" data-name="图层 2"><g id="图层_1-2" data-name="图层 1"><path class="cls-1" d="M8.28,10.54H.75A.73.73,0,0,1,0,9.84V4.57a.73.73,0,0,1,.75-.7H8.28a.73.73,0,0,1,.75.7V9.84a.73.73,0,0,1-.75.7M4.52,5.62A1.09,1.09,0,0,0,3.39,6.67,1,1,0,0,0,4,7.58v1a.56.56,0,0,0,1.13,0v-1a1,1,0,0,0,.56-.91A1.09,1.09,0,0,0,4.52,5.62m0-4.57A2.19,2.19,0,0,0,2.26,3.16H1.13A3.28,3.28,0,0,1,4.52,0,3.28,3.28,0,0,1,7.9,3.16H6.77A2.19,2.19,0,0,0,4.52,1.05"/></g></g></svg>