<svg xmlns="http://www.w3.org/2000/svg" viewBox="0 0 95.1 28.53"><defs><style>.cls-1,.cls-3{fill:#231815;}.cls-1{fill-rule:evenodd;}.cls-2{fill:#7ac28a;}</style></defs><title>logo</title><g id="图层_2" data-name="图层 2"><g id="图层_1-2" data-name="图层 1"><path class="cls-1" d="M14.26,6.17a8.07,8.07,0,1,0,.33,16.14,3.06,3.06,0,0,1,3.13,3.09,3.18,3.18,0,0,1-3.46,3.13A14.27,14.27,0,0,1,14.26,0,15,15,0,0,1,29.42,14.15a3,3,0,0,1-3,3,3.11,3.11,0,0,1-3-2.9A9.19,9.19,0,0,0,14.26,6.17Z"/><path class="cls-2" d="M22.17,15.87c-.44-4.37-3.2-8.13-7.92-8.15a6.55,6.55,0,0,0-6.54,6.54A6.86,6.86,0,0,0,14.2,21a5.43,5.43,0,0,1,3,.74,4.28,4.28,0,0,1,1.1,5.94A15.25,15.25,0,0,0,22.17,15.87Z"/><path class="cls-3" d="M82.12,5.38a1.69,1.69,0,0,0-2.87,1.15V18.89a1.63,1.63,0,0,0,3.26,0V10.39L86.08,14a1.63,1.63,0,1,0,2.31-2.31Z"/><path class="cls-3" d="M93.47,4.9a1.63,1.63,0,0,0-1.63,1.63V18.89a1.63,1.63,0,0,0,3.26,0V6.53A1.63,1.63,0,0,0,93.47,4.9Z"/><path class="cls-3" d="M55.95,12.33a8.42,8.42,0,0,0-8.7-7.57,7.93,7.93,0,1,0,.62,15.84,2,2,0,0,0-.07-3.92,4.08,4.08,0,0,1-4.25-4,4,4,0,0,1,4-4,4.61,4.61,0,0,1,4.59,4.07,2,2,0,0,0,1.92,1.81A2,2,0,0,0,55.95,12.33Z"/><path class="cls-3" d="M75.61,12.33a8.42,8.42,0,0,0-8.7-7.57,7.93,7.93,0,1,0,.62,15.84,2,2,0,0,0-.07-3.92,4.08,4.08,0,0,1-4.25-4,4,4,0,0,1,4-4,4.61,4.61,0,0,1,4.59,4.07,2,2,0,0,0,1.92,1.81A2,2,0,0,0,75.61,12.33Z"/></g></g></svg>