<svg xmlns="http://www.w3.org/2000/svg" viewBox="0 0 21.05 21.05"><defs><style>.cls-1{fill:#7ac189;}</style></defs><title>mail</title><g id="图层_2" data-name="图层 2"><g id="图层_1-2" data-name="图层 1"><path class="cls-1" d="M10.52,21A10.52,10.52,0,1,1,21,10.52,10.54,10.54,0,0,1,10.52,21Zm0-20.78A10.26,10.26,0,1,0,20.78,10.52,10.27,10.27,0,0,0,10.52.27Z"/><path class="cls-1" d="M13.1,10.45l3.5,2.83V7.62Zm-1.39,1.13a1.9,1.9,0,0,1-2.38,0L8.6,11,4.46,14.34a1.25,1.25,0,0,0,.76,1,1.23,1.23,0,0,0,.48.1h9.67a1.23,1.23,0,0,0,.59-.15,1.26,1.26,0,0,0,.33-.26,1.24,1.24,0,0,0,.31-.67L12.44,11Zm-7.27-4v5.67l3.5-2.83Zm0,0"/><path class="cls-1" d="M9.26,10.45l.59.48a1.06,1.06,0,0,0,1.33,0l.59-.48.66-.53,4.12-3.34a1.25,1.25,0,0,0-1.21-1H5.69a1.25,1.25,0,0,0-1.21,1L8.6,9.92Zm0,0"/></g></g></svg>