<svg xmlns="http://www.w3.org/2000/svg" viewBox="0 0 21.05 21.05"><defs><style>.cls-1{fill:#7ac189;}</style></defs><title>wx</title><g id="图层_2" data-name="图层 2"><g id="图层_1-2" data-name="图层 1"><path class="cls-1" d="M10.52,21A10.52,10.52,0,1,1,21,10.52,10.54,10.54,0,0,1,10.52,21Zm0-20.78A10.26,10.26,0,1,0,20.78,10.52,10.27,10.27,0,0,0,10.52.27Z"/><path class="cls-1" d="M13.4,8.22h.22c-.39-2.09-2.57-3.69-5.2-3.69-2.91,0-5.26,2-5.26,4.36a4.14,4.14,0,0,0,2.07,3.46l0,0L4.76,14l1.9-1,.09,0a6.3,6.3,0,0,0,1.67.22h.35a3.34,3.34,0,0,1-.17-1c0-2.19,2.15-4,4.8-4ZM10.25,6.69a.71.71,0,1,1-.74.71.72.72,0,0,1,.74-.71ZM6.59,8.1a.71.71,0,1,1,.74-.71.72.72,0,0,1-.74.71Zm11.3,4.12c0-2-2-3.68-4.45-3.68S9,10.19,9,12.23s2,3.68,4.45,3.68a5.27,5.27,0,0,0,1.41-.19l.08,0,1.61.81-.43-1.33,0,0a3.51,3.51,0,0,0,1.75-2.92Zm-6-.67a.6.6,0,1,1,.62-.6.61.61,0,0,1-.62.6Zm3.09,0a.6.6,0,1,1,.62-.6.61.61,0,0,1-.62.6Zm0,0"/></g></g></svg>